<?xml version="1.0" encoding="UTF-8"?><svg id="a" xmlns="http://www.w3.org/2000/svg" width="1080" height="694.3096" viewBox="0 0 1080 694.3096"><defs><style>.d{fill:#f7a81b;}.e{fill:#0e2c40;}</style></defs><g id="b"><path class="e" d="M682.76,258.549c15.3947,58.2671,15.0225,116.985,1.5231,171.6441l-100.7174-28.2069c8.6693-37.2745,8.6187-77.1599-1.8396-116.7432-34.2325-129.566-167.0021-206.8402-296.5681-172.6077-117.4206,31.0235-191.8935,142.9779-179.3442,260.1229l-.188,.0207c12.7466,140.4966,87.0652,257.0121,195.7795,297.7068,50.1929,18.7885,98.277,17.8811,134.407,12.3593-184.1166,48.6452-375.6507-62.8309-424.2959-246.9475C-37.1387,251.7425,74.4105,60.2301,258.4641,11.6015c185.3552-48.9725,375.3234,61.5923,424.2959,246.9475Z"/><path class="e" d="M694.2172,353.6502c-1.1158,60.2562-17.5214,116.6369-45.4451,165.5257l-89.174-54.659c18.5263-33.4861,29.3783-71.8668,30.1363-112.8014,2.4811-133.989-104.1148-244.6072-238.1038-247.0883-121.429-2.2486-223.6637,85.0902-243.6078,201.205l-.1865-.0315c-26.1363,138.6314,13.5092,271.0222,106.9628,339.8793,43.1471,31.7909,89.6486,44.0594,125.9122,48.6221C150.3095,690.7763-3.4663,531.198,.0594,340.7962,3.5859,150.3548,163.2286-3.3802,353.5653,.1443c191.6827,3.5495,344.2013,161.8232,340.6518,353.5059Z"/><path class="e" d="M264.3792,684.1011c58.5082,14.4514,117.2124,13.1308,171.6463-1.2498l-29.8302-100.2486c-37.1296,9.2703-77.0106,9.864-116.7577,.0465-130.102-32.135-209.511-163.6391-177.376-293.7411,29.1227-117.9064,139.8594-194.1781,257.1918-183.5227l.0176-.1883c140.6841,10.4754,258.385,82.902,300.8306,190.9449,19.5969,49.8828,19.4663,97.9754,14.5289,134.1898C730.2952,245.4533,615.7396,55.745,430.8612,10.0804,245.9444-35.5938,56.2589,79.0345,10.6099,263.8497c-45.9719,186.1221,67.6472,374.2795,253.7693,420.2514Z"/><path class="d" d="M112.7984,407.6992c34.2301,129.5569,167.2857,206.6012,296.8383,172.3916l.0362-.0095c9.7766-2.7184,23.5619-5.8871,40.2778-7.5458,18.8579-1.8713,60.6026-6.0135,100.7802,11.8153,55.0576,24.4318,78.1949,77.2638,84.3166,92.7063-19.7428-12.0319-36.8594-16.7547-48.2409-18.8768-44.1105-8.2244-88.8778,6.4319-115.3586,15.1014-11.4661,3.7539-20.6668,7.4434-36.0758,9.6482-4.9884,.7138-23.4706,3.1097-52.2046-1.1421-18.1647-2.6878-45.5744-8.794-77.107-24.2007l-.002-.001-.0016-.0007c-13.0367-6.1521-32.7794-16.8495-53.9081-34.1823-46.0676-37.7938-81.5575-81.3811-106.7128-129.7181-11.7323-22.5441-26.0194-55.5536-35.5522-97.8754"/></g><g id="c"><path class="e" d="M828.2539,244.076c2.5036-1.977,5.5769-4.3079,9.2286-6.8201-3.7811,2.5726-6.8891,4.9381-9.2286,6.8201Z"/><path class="e" d="M834.7039,239.2092c-.0517,.0365-.1027,.0738-.1543,.1104,.07-.0497,.1344-.0973,.205-.1472l-.0507,.0368Z"/><path class="e" d="M1080,550.8916c0,11.7409-1.5367,23.1623-4.4288,34.083-43.372,20.0457-93.3741,26.4169-143.1949,15.2026,24.604-3.7812,43.3461-23.4212,43.3461-47.1015,0-37.3549-56.4769-44.8914-96.8619-69.0465-36.5089-21.8414-102.8533-61.0523-102.8533-134.6311,0-42.2584,20.4343-80.1226,52.7129-105.7193,1.8973-1.5095,3.8467-2.9535,5.8295-4.3592-2.0359,1.4461-3.827,2.8034-5.346,4.0052,1.6178-1.2584,3.4494-2.6447,5.5002-4.1157,.3929-.2777,.7766-.5661,1.173-.8397,.4747-.3281,.9581-.6647,1.4589-1.01,.0518-.0345,.0949-.0691,.1467-.1036,.2763-.1899,.5526-.3712,.8288-.5612,.3453-.2417,.7079-.4834,1.0705-.7251,.3281-.2158,.6648-.4316,1.0015-.6561,5.7237-3.7122,41.4555-26.2701,87.616-25.5277,5.3007,.0864,64.5314,1.9597,103.138,40.8685,9.4703,10.7048,16.135,22.9723,19.2861,36.1203,4.9294,20.5637,.3798,39.5649-4.8864,52.9028-13.6227-10.6617-34.8944-24.8889-60.6811-34.1693-4.1524-1.4935-8.0804-2.6848-11.7062-3.6259-.0086-.0086-.0173-.0086-.0259-.0086-6.6129-1.718-12.2157-2.6417-16.3163-3.151-.3108-.0432-.6302-.0777-.941-.1122-.2763-.0345-.5612-.0691-.846-.0949-.0346-.0086-.0605-.0086-.0951-.0086-1.7266-.19-3.0906-.2935-4.0315-.3626-7.4503-.5439-16.9811-1.1655-28.3335,1.4158-.4316,.095-.8719,.1986-1.3036,.3108-.0259,0-.0431,0-.0604,.0086-3.315,.7166-5.6632,1.4676-6.9927,1.9424-2.7194,.9755-6.2243,2.2705-10.2819,4.61-2.0979,1.0273-4.1179,2.21-6.0258,3.5136l-.1554,.1036c-7.1654,4.9208-12.863,11.5509-16.3594,19.2342-.1209,.2417-.2331,.4749-.3281,.7166,0,.0086-.0086,.0173-.0086,.0259-.1554,.3366-.2935,.6733-.4316,1.01-.6561,1.6144-1.2173,3.2805-1.6749,4.9726-.0173,.0691-.0345,.1381-.0604,.2072-.941,3.5481-1.4417,7.2517-1.4417,11.0588,0,6.8891,2.2533,13.2948,6.0172,19.2084l.0086,.0086c15.2027,23.8874,55.1216,39.7375,71.0234,47.2309,55.5187,26.1666,125.5148,46.1173,125.5148,137.1692Z"/><path class="e" d="M920.276,597.1077c3.4807,.7599,18.9586,3.7381,34.0327-5.5726,10.4691-6.4664,15.3674-15.5397,17.2155-19.5041,1.4834,.8031,3.0556,2.0153,3.8809,3.8809,4.4279,10.0082-14.6092,34.3525-35.4259,35.4258-10.0274,.517-22.3413-4.2691-22.6884-9.354-.131-1.9184,1.4578-3.639,2.9853-4.876Z"/><path class="d" d="M1075.5712,584.9746c-12.6559,47.7057-51.2538,86.0793-101.2906,101.774-9.8502,2.6158-18.5178,4.2388-25.6486,5.292-12.9062,1.9079-23.5679,2.3654-31.6484,2.2532-10.2215-.3884-20.1839-1.692-29.801-3.8071-7.2171-1.8388-13.1826-4.0575-20.0284-6.2934-2.6072-.8547-5.4129-1.7698-8.3912-2.7194-24.8716-7.9337-61.7171-17.9997-98.0706-11.2229-10.5063,1.9597-26.3046,6.3193-44.5288,17.4213,5.1367-12.9495,23.2313-54.3791,64.6005-78.7585,4.1698-2.4604,8.5639-4.7395,13.2171-6.8028,37.0872-16.4544,75.6161-12.63,93.0202-10.9034,2.2359,.2245,4.4114,.4748,6.5266,.7511,12.5092,1.6144,22.9291,4.0661,30.647,6.2157l.0345,.0086c2.7194,.7165,5.4473,1.3813,8.1669,1.9942,49.8208,11.2142,99.8229,4.8431,143.1949-15.2026Z"/><path class="e" d="M828.2539,244.076c2.3395-1.882,5.4475-4.2475,9.2286-6.8201-3.6517,2.5122-6.725,4.8431-9.2286,6.8201Z"/><path class="e" d="M897.8961,309.9455c2.1237-1.4503,4.3769-2.7453,6.7337-3.8676-.328,.164-.6475,.3366-.9668,.5007-.0259,.0086-.0518,.0259-.0864,.0432-2.1669,1.1482-4.0661,2.2878-5.6805,3.3237Z"/><path class="d" d="M1061.3354,353.3693c-1.7956-1.8129-7.3121-7.0618-15.7984-13.6919-13.6227-10.6617-34.8944-24.8889-60.6811-34.1693-4.1524-1.4935-8.0804-2.6848-11.7062-3.6259-.0086-.0086-.0173-.0086-.0259-.0086-4.8259-1.3035-10.3164-2.4517-16.3163-3.151-.3108-.0432-.6302-.0777-.941-.1122-.2763-.0345-.5612-.0691-.846-.0949-.0346-.0086-.0605-.0086-.0951-.0086-.3107-.0346-.6302-.0691-.941-.0949-14.8659-1.3813-25.873-.0259-32.7276,1.459-.0259,0-.0431,0-.0604,.0086-3.315,.7166-5.6632,1.4676-6.9927,1.9424-2.7194,.9755-6.2243,2.2705-10.2819,4.61-.0863,.0432-.1727,.0949-.2589,.1467-.0259,.0086-.0518,.0259-.0864,.0432-.7769,.4576-1.5884,.9497-2.4086,1.4935-3.7725,2.4777-14.1839,9.3236-19.7867,21.168-.1122,.2331-.2158,.4749-.3281,.7166,0,.0086-.0086,.0173-.0086,.0259-.1554,.3281-.2935,.6647-.4316,1.01-.6561,1.5712-1.2259,3.2287-1.6749,4.9726-.0173,.0691-.0345,.1381-.0604,.2072-.3367,1.3467-.6129,2.7453-.8116,4.1956-1.4935,10.9898,2.1324,20.2616,5.387,26.0716l.0086,.0086c-2.9002-4.4129-4.9624-8.1585-6.2455-10.6158-15.9045-30.4578-14.1114-58.2796-13.6103-64.3616,.2821-3.4244,.657-5.9347,.7598-6.6905,1.6488-12.112,5.9567-30.7333,20.7881-47.8612,15.5049-17.8961,34.2901-24.6816,42.8454-27.1766,43.5015-.7597,80.9946,15.7724,103.138,40.8685,7.4503,7.5021,14.1322,16.3854,19.5106,26.9003,15.8327,30.9664,12.9839,61.6653,10.6875,75.8147Z"/></g></svg>