<?xml version="1.0" encoding="UTF-8"?><svg id="a" xmlns="http://www.w3.org/2000/svg" width="1080" height="694.3096" viewBox="0 0 1080 694.3096"><defs><style>.d{fill:#f7a81b;}.e{fill:#0e2c40;}</style></defs><g id="b"><path class="e" d="M682.76,258.549c15.3947,58.2671,15.0225,116.985,1.5231,171.6441l-100.7174-28.2069c8.6693-37.2745,8.6187-77.1599-1.8396-116.7432-34.2325-129.566-167.0021-206.8402-296.5681-172.6077-117.4206,31.0235-191.8935,142.9779-179.3442,260.1229l-.188,.0207c12.7466,140.4966,87.0652,257.0121,195.7795,297.7068,50.1929,18.7885,98.277,17.8811,134.407,12.3593-184.1166,48.6452-375.6507-62.8309-424.2959-246.9475C-37.1387,251.7425,74.4105,60.2301,258.4641,11.6015c185.3552-48.9725,375.3234,61.5923,424.2959,246.9475Z"/><path class="e" d="M694.2172,353.6502c-1.1158,60.2562-17.5214,116.6369-45.4451,165.5257l-89.174-54.659c18.5263-33.4861,29.3783-71.8668,30.1363-112.8014,2.4811-133.989-104.1148-244.6072-238.1038-247.0883-121.429-2.2486-223.6637,85.0902-243.6078,201.205l-.1865-.0315c-26.1363,138.6314,13.5092,271.0222,106.9628,339.8793,43.1471,31.7909,89.6486,44.0594,125.9122,48.6221C150.3095,690.7763-3.4663,531.198,.0594,340.7962,3.5859,150.3548,163.2286-3.3802,353.5653,.1443c191.6827,3.5495,344.2013,161.8232,340.6518,353.5059Z"/><path class="e" d="M264.3792,684.1011c58.5082,14.4514,117.2124,13.1308,171.6463-1.2498l-29.8302-100.2486c-37.1296,9.2703-77.0106,9.864-116.7577,.0465-130.102-32.135-209.511-163.6391-177.376-293.7411,29.1227-117.9064,139.8594-194.1781,257.1918-183.5227l.0176-.1883c140.6841,10.4754,258.385,82.902,300.8306,190.9449,19.5969,49.8828,19.4663,97.9754,14.5289,134.1898C730.2952,245.4533,615.7396,55.745,430.8612,10.0804,245.9444-35.5938,56.2589,79.0345,10.6099,263.8497c-45.9719,186.1221,67.6472,374.2795,253.7693,420.2514Z"/><path class="d" d="M112.7984,407.6992c34.2301,129.5569,167.2857,206.6012,296.8383,172.3916l.0362-.0095c9.7766-2.7184,23.5619-5.8871,40.2778-7.5458,18.8579-1.8713,60.6026-6.0135,100.7802,11.8153,55.0576,24.4318,78.1949,77.2638,84.3166,92.7063-19.7428-12.0319-36.8594-16.7547-48.2409-18.8768-44.1105-8.2244-88.8778,6.4319-115.3586,15.1014-11.4661,3.7539-20.6668,7.4434-36.0758,9.6482-4.9884,.7138-23.4706,3.1097-52.2046-1.1421-18.1647-2.6878-45.5744-8.794-77.107-24.2007l-.002-.001-.0016-.0007c-13.0367-6.1521-32.7794-16.8495-53.9081-34.1823-46.0676-37.7938-81.5575-81.3811-106.7128-129.7181-11.7323-22.5441-26.0194-55.5536-35.5522-97.8754"/></g><g id="c"><path class="e" d="M1080,550.8948c0,11.74-1.54,23.16-4.4299,34.08-43.3701,20.05-93.3701,26.42-143.1901,15.2,24.6-3.78,43.34-23.42,43.34-47.1,0-37.35-56.47-44.89-96.86-69.05-36.51-21.84-102.85-61.05-102.85-134.63,0-42.26,20.43-80.12,52.71-105.72,.8242-.6524,1.6631-1.275,2.5-1.9024,.5969-.4457,1.2082-.9062,1.85-1.3876,.24-.17,.48-.35,.73-.53,.12-.08,.24-.17,.36-.26,.13-.09,.26-.19,.39-.28,.05-.04,.1-.07,.15-.11,.4-.27,.78-.56,1.18-.84,.47-.3199,.96-.66,1.46-1.0099,.05-.03,.09-.06,.14-.1,.28-.19,.56-.37,.83-.56,.35-.24,.71-.48,1.07-.73,.33-.21,.67-.43,1-.65,5.73-3.71,41.46-26.27,87.62-25.53-8.56,2.5-27.34,9.28-42.85,27.18-14.83,17.13-19.14,35.75-20.78,47.86-.11,.75-.48,3.26-.76,6.69-.51,6.08-2.3,33.9,13.61,64.36,1.27,2.44,3.3,6.13,6.16,10.49,.02,.04,.05,.09,.08,.13,15.2,23.88,55.12,39.73,71.03,47.23,55.51,26.16,125.51,46.11,125.51,137.17Z"/><path class="e" d="M920.276,597.1077c3.4807,.7599,18.9586,3.7381,34.0327-5.5726,10.4691-6.4664,15.3674-15.5397,17.2155-19.5041,1.4834,.8031,3.0556,2.0153,3.8809,3.8809,4.4279,10.0082-14.6092,34.3525-35.4259,35.4258-10.0274,.517-22.3413-4.2691-22.6884-9.354-.131-1.9184,1.4578-3.639,2.9853-4.876Z"/><path class="d" d="M1075.5712,584.9746c-12.6559,47.7057-51.2538,86.0793-101.2906,101.774-9.8502,2.6158-18.5178,4.2388-25.6486,5.292-12.9062,1.9079-23.5679,2.3654-31.6484,2.2532-10.2215-.3884-20.1839-1.692-29.801-3.8071-7.2171-1.8388-13.1826-4.0575-20.0284-6.2934-2.6072-.8547-5.4129-1.7698-8.3912-2.7194-24.8716-7.9337-61.7171-17.9997-98.0706-11.2229-10.5063,1.9597-26.3046,6.3193-44.5288,17.4213,5.1367-12.9495,23.2313-54.3791,64.6005-78.7585,4.1698-2.4604,8.5639-4.7395,13.2171-6.8028,37.0872-16.4544,75.6161-12.63,93.0202-10.9034,2.2359,.2245,4.4114,.4748,6.5266,.7511,12.5092,1.6144,22.9291,4.0661,30.647,6.2157l.0345,.0086c2.7194,.7165,5.4473,1.3813,8.1669,1.9942,49.8208,11.2142,99.8229,4.8431,143.1949-15.2026Z"/><path class="d" d="M1061.3401,353.3648c-1.8-1.81-7.3201-7.06-15.8-13.69-13.6301-10.66-34.9-24.89-60.6801-34.17-4.16-1.49-8.08-2.68-11.71-3.62-.01-.01-.02-.01-.03-.01-4.61-1.24-9.83-2.35-15.52-3.05-.2599-.04-.52-.07-.79-.1-.31-.05-.63-.08-.94-.11-.28-.04-.56-.0699-.85-.1-.03-.01-.06-.01-.09-.01-.16-.01-.32-.03-.47-.05-.16-.02-.32-.03-.48-.04-14.86-1.38-25.87-.03-32.72,1.46h-.06c-3.32,.72-5.67,1.47-7,1.95-2.72,.97-6.22,2.27-10.28,4.61-.08,.04-.17,.09-.26,.14-.02,.01-.05,.03-.08,.05-.78,.45-1.59,.95-2.41,1.49-3.77,2.48-14.19,9.32-19.79,21.17-.11,.23-.21,.47-.33,.72,0,0-.01,.01-.01,.02-.15,.33-.29,.67-.43,1.01-.65,1.57-1.22,3.23-1.67,4.97l-.06,.21c-.34,1.35-.62,2.75-.81,4.2-1.49,10.92,2.08,20.14,5.31,25.95-2.86-4.36-4.89-8.05-6.16-10.49-15.91-30.46-14.12-58.28-13.61-64.36,.28-3.43,.65-5.94,.76-6.69,1.64-12.11,5.95-30.73,20.78-47.86,15.5099-17.9,34.29-24.68,42.85-27.18,43.5-.76,80.99,15.77,103.14,40.87,7.4501,7.5,14.13,16.38,19.51,26.9,15.83,30.97,12.98,61.67,10.6901,75.81Z"/></g></svg>