<?xml version="1.0" encoding="UTF-8"?><svg id="a" xmlns="http://www.w3.org/2000/svg" width="1080" height="1080" viewBox="0 0 1080 1080"><defs><style>.d{fill:#f7a81b;}.e{fill:#f9f8f0;}</style></defs><g id="b"><path class="e" d="M680.9301,455.2954c15.2582,57.7507,14.8893,115.948,1.5096,170.1227l-99.8246-27.9569c8.5925-36.9441,8.5423-76.4759-1.8232-115.7084-33.929-128.4175-165.5219-205.0068-293.9394-171.0778-116.3798,30.7486-190.1926,141.7106-177.7545,257.8172l-.1864,.0205c12.6337,139.2512,86.2934,254.734,194.0442,295.068,49.748,18.622,97.4059,17.7226,133.2156,12.2497-182.4846,48.214-372.321-62.274-420.535-244.7587-48.224-182.5226,62.3364-372.3375,244.7587-420.535,183.7123-48.5384,371.9967,61.0464,420.535,244.7587Z"/><path class="e" d="M692.2857,549.5536c-1.1059,59.7221-17.3661,115.603-45.0423,164.0585l-88.3836-54.1746c18.3621-33.1893,29.1179-71.2298,29.8692-111.8016,2.4591-132.8013-103.192-242.4391-235.9933-244.8982-120.3527-2.2286-221.6812,84.336-241.4485,199.4216l-.1849-.0312c-25.9046,137.4026,13.3894,268.62,106.0148,336.8667,42.7647,31.5091,88.854,43.6689,124.7961,48.1911C153.1991,883.6915,.7863,725.5276,4.2808,536.8135,7.7761,348.0601,166.0037,195.6878,354.6533,199.1811c189.9837,3.518,341.1504,160.3888,337.6324,350.3725Z"/><path class="e" d="M266.2578,877.0754c57.9896,14.3233,116.1734,13.0144,170.1249-1.2387l-29.5658-99.36c-36.8004,9.1881-76.328,9.7766-115.7228,.0461-128.9488-31.8502-207.6539-162.1886-175.8037-291.1375,28.8646-116.8613,138.6198-192.4569,254.9121-181.896l.0175-.1867c139.4372,10.3826,256.0947,82.1672,298.1641,189.2524,19.4232,49.4407,19.2938,97.1069,14.4001,133.0004,45.2599-183.2397-68.2803-371.2664-251.52-416.5264C247.9864,163.7598,59.9822,277.372,14.7378,460.5491c-45.5644,184.4724,67.0476,370.962,251.52,416.5264Z"/><path class="d" d="M116.0205,603.1235c33.9267,128.4086,165.8029,204.77,294.2072,170.8635l.0359-.0094c9.69-2.6943,23.353-5.8349,39.9208-7.4789,18.6908-1.8547,60.0654-5.9602,99.8869,11.7106,54.5695,24.2153,77.5018,76.5789,83.5693,91.8846-19.5678-11.9253-36.5327-16.6062-47.8133-18.7095-43.7195-8.1515-88.09,6.3749-114.3361,14.9676-11.3644,3.7206-20.4836,7.3774-35.756,9.5627-4.9442,.7075-23.2626,3.0821-51.7419-1.1319-18.0037-2.664-45.1704-8.7161-76.4236-23.9862l-.002-.001-.0016-.0007c-12.9212-6.0975-32.4888-16.7001-53.4302-33.8793-45.6593-37.4588-80.8346-80.6598-105.7669-128.5684-11.6283-22.3443-25.7887-55.0612-35.2371-97.0078"/></g><g id="c"><path class="e" d="M1074.6491,745.0499c0,11.6359-1.5264,22.9547-4.3907,33.7779-42.9857,19.8723-92.5424,26.1858-141.9209,15.0652,24.3819-3.7465,42.9558-23.2124,42.9558-46.6825,0-37.0189-55.9694-44.4921-96.0014-68.4379-36.1864-21.6464-101.9383-60.5089-101.9383-133.4367,0-41.8854,20.2489-79.4098,52.2428-104.783,.8169-.6466,1.6484-1.2637,2.4778-1.8855,.5916-.4418,1.1975-.8982,1.8336-1.3753,.2379-.1685,.4757-.3469,.7235-.5253,.1189-.0793,.2379-.1685,.3568-.2577,.1289-.0892,.2577-.1883,.3866-.2775,.0495-.0396,.0991-.0694,.1487-.109,.3964-.2676,.7731-.555,1.1695-.8326,.4658-.3171,.9515-.6541,1.4471-1.001,.0495-.0298,.0892-.0595,.1387-.0991,.2775-.1883,.555-.3667,.8227-.555,.3469-.2379,.7037-.4757,1.0605-.7235,.3271-.2082,.664-.4262,.9911-.6443,5.6792-3.6771,41.0925-26.0371,86.8434-25.3037-8.4841,2.4778-27.0977,9.1977-42.4702,26.9391-14.6986,16.9782-18.9704,35.4331-20.5958,47.4358-.109,.7434-.4757,3.2311-.7533,6.6307-.5055,6.0261-2.2796,33.5995,13.4893,63.7895,1.2588,2.4184,3.2708,6.0757,6.1054,10.397,.0198,.0397,.0495,.0892,.0793,.1289,15.0652,23.6683,54.6314,39.3779,70.4004,46.8114,55.018,25.9281,124.3975,45.7013,124.3975,135.9541Z"/><path class="e" d="M916.3408,790.8532c3.4498,.7531,18.7906,3.705,33.731-5.5233,10.3763-6.4091,15.2311-15.402,17.0629-19.3312,1.4702,.796,3.0285,1.9974,3.8465,3.8465,4.3886,9.9195-14.4797,34.048-35.1119,35.1118-9.9385,.5124-22.1433-4.2313-22.4873-9.2711-.1298-1.9014,1.4448-3.6068,2.9588-4.8328Z"/><path class="d" d="M1070.2595,778.8276c-12.5437,47.2829-50.7995,85.3163-100.3928,100.8719-9.7629,2.5926-18.3536,4.2012-25.4213,5.2451-12.7918,1.891-23.359,2.3445-31.3679,2.2332-10.1309-.385-20.005-1.677-29.5369-3.7734-7.1532-1.8225-13.0657-4.0215-19.8509-6.2376-2.5841-.8471-5.3649-1.7541-8.3168-2.6953-24.6512-7.8634-61.17-17.8402-97.2013-11.1234-10.4131,1.9423-26.0715,6.2633-44.1341,17.2669,5.0911-12.8347,23.0254-53.8971,64.0279-78.0604,4.1328-2.4386,8.488-4.6975,13.1-6.7425,36.7585-16.3086,74.9459-12.5181,92.1957-10.8068,2.2161,.2225,4.3723,.4706,6.4687,.7444,12.3983,1.6001,22.7259,4.0301,30.3754,6.1607l.0342,.0086c2.6953,.7101,5.3991,1.369,8.0945,1.9765,49.3792,11.1148,98.9381,4.8002,141.9257-15.0679Z"/><path class="d" d="M1056.1545,549.2707c-1.7841-1.794-7.2552-6.9974-15.66-13.5687-13.5093-10.5655-34.5907-24.6693-60.1422-33.8671-4.1231-1.4768-8.0083-2.6562-11.6062-3.5879-.0099-.0099-.0198-.0099-.0298-.0099-4.5691-1.229-9.7429-2.3291-15.3825-3.023-.2576-.0396-.5153-.0694-.783-.0991-.3072-.0496-.6244-.0793-.9317-.1091-.2775-.0396-.555-.0693-.8424-.0991-.0298-.0099-.0595-.0099-.0892-.0099-.1586-.0099-.3172-.0297-.4658-.0495-.1586-.0198-.3172-.0298-.4758-.0396-14.7283-1.3678-25.6407-.0298-32.4299,1.447h-.0595c-3.2906,.7136-5.6197,1.457-6.938,1.9327-2.6959,.9614-6.1649,2.2499-10.1889,4.5691-.0792,.0397-.1685,.0892-.2577,.1388-.0198,.0099-.0495,.0298-.0792,.0495-.7731,.446-1.5759,.9416-2.3887,1.4768-3.7365,2.4581-14.0642,9.2374-19.6146,20.9824-.109,.2279-.2082,.4658-.3271,.7136,0,0-.0099,.0099-.0099,.0198-.1486,.3271-.2874,.664-.4262,1.0011-.6442,1.5561-1.2092,3.2014-1.6552,4.9259l-.0595,.2082c-.337,1.338-.6145,2.7256-.8028,4.1628-1.4768,10.8232,2.0616,19.9614,5.2629,25.7199-2.8346-4.3213-4.8467-7.9786-6.1054-10.397-15.769-30.19-13.9948-57.7634-13.4893-63.7895,.2775-3.3996,.6443-5.8874,.7533-6.6307,1.6255-12.0026,5.8973-30.4576,20.5958-47.4358,15.3725-17.7414,33.986-24.4612,42.4702-26.9391,43.1144-.7533,80.2721,15.6302,102.2258,40.5077,7.384,7.4335,14.0048,16.2348,19.3371,26.6615,15.6896,30.6955,12.8649,61.1234,10.5953,75.138Z"/></g></svg>